<?xml version="1.0" encoding="utf-8"?>
<!-- Generator: Adobe Illustrator 25.2.1, SVG Export Plug-In . SVG Version: 6.00 Build 0)  -->
<svg version="1.1" id="Camada_1" xmlns="http://www.w3.org/2000/svg" xmlns:xlink="http://www.w3.org/1999/xlink" x="0px" y="0px"
	 viewBox="0 0 646 119" style="enable-background:new 0 0 646 119;" xml:space="preserve">
<style type="text/css">
	.st0{fill:#DADADA;}
	.st1{fill:#E30613;}
</style>
<g>
	<g>
		<path class="st0" d="M53.22,53.62H20.41v24.6h36.56v7.39H9.52V17.37h45.58v7.39H20.41v21.56h32.81V53.62z"/>
		<path class="st0" d="M84.76,64.15L76,85.61H64.73L93.4,17.37h13.15l28.8,68.24h-11.65l-9.02-21.46H84.76z M112.44,57.26
			l-8.26-19.64c-1.88-4.45-3.13-8.5-4.38-12.45h-0.25c-1.25,4.05-2.63,8.2-4.26,12.35l-8.26,19.74H112.44z"/>
		<path class="st0" d="M146.24,74.88c4.88,2.43,12.02,4.45,19.53,4.45c11.14,0,17.66-4.76,17.66-11.64c0-6.38-4.51-10.02-15.9-13.57
			c-13.77-3.95-22.29-9.72-22.29-19.34c0-10.63,10.89-18.53,27.3-18.53c8.64,0,14.9,1.62,18.66,3.34l-3,7.19
			c-2.75-1.21-8.39-3.24-16.03-3.24c-11.52,0-15.9,5.57-15.9,10.23c0,6.38,5.13,9.52,16.78,13.16
			c14.27,4.45,21.54,10.02,21.54,20.05c0,10.53-9.64,19.64-29.55,19.64c-8.14,0-17.03-1.92-21.54-4.35L146.24,74.88z"/>
		<path class="st0" d="M228.25,85.61V56.66l-26.67-39.28h12.4l11.9,18.83c3.26,5.16,5.76,9.31,8.39,14.07h0.25
			c2.38-4.45,5.26-8.91,8.51-14.07l12.15-18.83h12.4l-28.3,39.18v29.06H228.25z"/>
		<path class="st1" d="M305.41,86.35c-4.32,0-8.39-0.33-12.2-0.99c-3.81-0.66-7.38-1.65-10.7-2.97c-3.32-1.32-6.43-2.97-9.32-4.94
			l7.76-7.71c3.38,2.37,7.11,4.15,11.19,5.34c4.08,1.19,8.5,1.78,13.27,1.78c6.44,0,11.43-0.97,14.98-2.92s5.32-4.66,5.32-8.16
			v-0.05c0-2.74-0.9-4.83-2.69-6.28c-1.79-1.45-4.15-2.53-7.06-3.24c-2.91-0.71-6.1-1.29-9.57-1.75c-3.34-0.46-6.72-1-10.12-1.63
			c-3.4-0.63-6.53-1.61-9.38-2.94c-2.85-1.33-5.15-3.25-6.88-5.76c-1.73-2.5-2.6-5.85-2.6-10.04v-0.05c0-6.69,2.75-11.87,8.25-15.55
			c5.5-3.67,13.27-5.51,23.29-5.51c4.77,0,9.44,0.62,14,1.85c4.56,1.24,9.01,3.12,13.33,5.66l-7.09,8.01
			c-3.38-2.04-6.76-3.56-10.12-4.55c-3.36-0.99-6.74-1.48-10.12-1.48c-6.07,0-10.79,0.98-14.15,2.94c-3.36,1.96-5.04,4.74-5.04,8.33
			v0.05c0,2.7,0.98,4.76,2.93,6.18c1.96,1.42,4.51,2.46,7.67,3.14c3.16,0.68,6.55,1.31,10.18,1.9c3.26,0.53,6.52,1.16,9.78,1.9
			c3.26,0.74,6.23,1.81,8.9,3.21c2.67,1.4,4.81,3.32,6.42,5.76c1.61,2.44,2.42,5.62,2.42,9.54v0.1c0,6.62-2.85,11.75-8.56,15.38
			C323.79,84.54,315.76,86.35,305.41,86.35z"/>
		<path class="st1" d="M355.78,85.61V13.73h12.47v71.88H355.78z M362.2,57.73v-9.59h28.43c4.08,0,7.35-1.14,9.81-3.41
			c2.47-2.27,3.7-5.26,3.7-8.95c0-3.76-1.23-6.77-3.7-9.05c-2.47-2.27-5.74-3.41-9.81-3.41H362.2v-9.59h28
			c5.38,0,10.07,0.91,14.06,2.74c3.99,1.83,7.1,4.39,9.32,7.69c2.22,3.3,3.33,7.17,3.33,11.62c0,4.42-1.11,8.27-3.33,11.57
			c-2.22,3.3-5.33,5.85-9.32,7.66c-4,1.81-8.68,2.72-14.06,2.72H362.2z"/>
		<path class="st1" d="M463.14,86.35c-6.28,0-11.76-1.09-16.45-3.29c-4.69-2.19-8.32-5.28-10.91-9.27
			c-2.59-3.99-3.88-8.63-3.88-13.94V39.49c0-5.34,1.29-9.99,3.88-13.97c2.59-3.97,6.23-7.05,10.91-9.24
			c4.69-2.19,10.17-3.29,16.45-3.29c6.28,0,11.76,1.1,16.45,3.29c4.69,2.19,8.32,5.27,10.91,9.24c2.59,3.97,3.88,8.63,3.88,13.97
			v20.37c0,5.31-1.29,9.95-3.88,13.94c-2.59,3.99-6.23,7.08-10.91,9.27C474.9,85.26,469.41,86.35,463.14,86.35z M463.14,76.42
			c5.58,0,10.06-1.48,13.42-4.45c3.36-2.97,5.04-6.89,5.04-11.77V39.14c0-4.91-1.68-8.84-5.04-11.79s-7.84-4.42-13.42-4.42
			c-5.54,0-10.01,1.48-13.39,4.42c-3.38,2.95-5.07,6.88-5.07,11.79V60.2c0,4.88,1.69,8.8,5.07,11.77
			C453.13,74.93,457.59,76.42,463.14,76.42z"/>
		<path class="st1" d="M514.55,85.61V13.68h12.47v71.93H514.55z M519.99,55.21v-9.59h30.32c3.63,0,6.54-1.02,8.74-3.07
			c2.2-2.04,3.3-4.75,3.3-8.11c0-3.36-1.1-6.06-3.3-8.11c-2.2-2.04-5.12-3.06-8.74-3.06h-30.32v-9.59h29.83
			c5.17,0,9.7,0.87,13.57,2.6s6.88,4.15,9.02,7.24c2.14,3.1,3.21,6.74,3.21,10.93c0,4.15-1.08,7.79-3.24,10.9
			c-2.16,3.11-5.17,5.54-9.02,7.27c-3.85,1.73-8.37,2.6-13.54,2.6H519.99z M564.56,85.61L544.2,52.98l12.41-2.27l22.74,34.9H564.56z
			"/>
		<path class="st1" d="M583.94,23.32v-9.59h62.73v9.59H583.94z M609.07,85.61v-66h12.47v66H609.07z"/>
	</g>
</g>
<g>
	<g>
		<path class="st0" d="M8.62,111.52V97.8h4.09v13.72H8.62z M11.04,111.52v-1.78h7.93c2.17,0,3.71-0.19,4.62-0.58
			c0.91-0.39,1.36-0.9,1.36-1.54v-0.03c0-0.68-0.39-1.22-1.16-1.63s-2.04-0.61-3.82-0.61h-8.94v-1.74h8.94
			c1.52,0,2.66-0.17,3.43-0.5c0.77-0.34,1.16-0.83,1.16-1.48c0-0.69-0.43-1.2-1.29-1.54c-0.86-0.34-2.15-0.51-3.87-0.51h-8.38V97.8
			h9.12c2.89,0,5.03,0.34,6.44,1.01c1.41,0.67,2.11,1.58,2.11,2.71c0,0.69-0.43,1.31-1.29,1.88s-2.21,0.93-4.05,1.09
			c1.81,0.13,3.22,0.5,4.22,1.12c1,0.62,1.5,1.34,1.5,2.14v0.03c0,1.12-0.77,2.02-2.32,2.71c-1.54,0.69-3.64,1.03-6.28,1.03H11.04z"
			/>
		<path class="st0" d="M35.24,111.52V97.8h4.11v13.72H35.24z M37.23,99.63V97.8h16.81v1.83H37.23z M37.23,105.62v-1.83h14.6v1.83
			H37.23z M37.23,111.52v-1.83h16.81v1.83H37.23z"/>
		<path class="st0" d="M69.47,111.66c-2.04,0-3.83-0.21-5.36-0.64c-1.53-0.42-2.72-1.02-3.56-1.79s-1.27-1.66-1.27-2.69v-3.76
			c0-1.03,0.42-1.93,1.27-2.7s2.03-1.36,3.56-1.79c1.53-0.42,3.32-0.64,5.36-0.64c1.69,0,3.24,0.17,4.64,0.51s2.58,0.81,3.52,1.42
			s1.59,1.32,1.92,2.14h-4.21c-0.25-0.44-0.68-0.83-1.28-1.16c-0.6-0.33-1.3-0.59-2.1-0.77c-0.81-0.18-1.64-0.27-2.5-0.27
			c-1.8,0-3.25,0.3-4.34,0.89c-1.09,0.59-1.64,1.38-1.64,2.35v3.76c0,0.97,0.55,1.76,1.64,2.35c1.09,0.59,2.54,0.89,4.34,0.89
			c1.27,0,2.48-0.19,3.6-0.57c1.13-0.38,1.89-0.92,2.27-1.63h4.21c-0.34,0.82-0.98,1.53-1.93,2.14c-0.95,0.61-2.13,1.08-3.52,1.42
			C72.7,111.49,71.16,111.66,69.47,111.66z"/>
		<path class="st0" d="M82.58,111.52L93.37,97.8h3.5l10.79,13.72h-4.43l-8.11-11.07L87,111.52H82.58z M87.55,108.51v-1.83h15.4v1.83
			H87.55z"/>
		<path class="st0" d="M121.96,111.66c-3.26,0-5.79-0.45-7.58-1.33s-2.69-2.15-2.69-3.77V97.8h4.11v8.82c0,1,0.54,1.77,1.61,2.32
			c1.07,0.55,2.59,0.82,4.55,0.82c1.97,0,3.5-0.27,4.58-0.82c1.08-0.55,1.62-1.32,1.62-2.32V97.8h4.11v8.75
			c0,1.62-0.9,2.88-2.7,3.77C127.77,111.22,125.23,111.66,121.96,111.66z"/>
		<path class="st0" d="M147.91,111.66c-1.42,0-2.76-0.06-4.02-0.19c-1.25-0.13-2.43-0.31-3.52-0.57c-1.09-0.25-2.12-0.57-3.07-0.94
			l2.56-1.47c1.11,0.45,2.34,0.79,3.68,1.02c1.34,0.23,2.8,0.34,4.37,0.34c2.12,0,3.76-0.19,4.93-0.56s1.75-0.89,1.75-1.56v-0.01
			c0-0.52-0.3-0.92-0.89-1.2c-0.59-0.28-1.37-0.48-2.33-0.62c-0.96-0.14-2.01-0.25-3.15-0.33c-1.1-0.09-2.21-0.19-3.33-0.31
			c-1.12-0.12-2.15-0.31-3.09-0.56c-0.94-0.25-1.69-0.62-2.27-1.1c-0.57-0.48-0.86-1.12-0.86-1.92v-0.01c0-1.28,0.91-2.27,2.72-2.97
			c1.81-0.7,4.37-1.05,7.67-1.05c1.57,0,3.11,0.12,4.61,0.35c1.5,0.24,2.97,0.6,4.39,1.08l-2.34,1.53
			c-1.11-0.39-2.23-0.68-3.33-0.87c-1.11-0.19-2.22-0.28-3.33-0.28c-2,0-3.55,0.19-4.66,0.56c-1.11,0.37-1.66,0.9-1.66,1.59v0.01
			c0,0.52,0.32,0.91,0.97,1.18c0.64,0.27,1.49,0.47,2.53,0.6c1.04,0.13,2.16,0.25,3.35,0.36c1.07,0.1,2.15,0.22,3.22,0.36
			c1.07,0.14,2.05,0.35,2.93,0.61c0.88,0.27,1.58,0.63,2.11,1.1s0.8,1.07,0.8,1.82v0.02c0,1.26-0.94,2.24-2.82,2.93
			C153.96,111.32,151.32,111.66,147.91,111.66z"/>
		<path class="st0" d="M164.5,111.52V97.8h4.11v13.72H164.5z M166.49,99.63V97.8h16.81v1.83H166.49z M166.49,105.62v-1.83h14.6v1.83
			H166.49z M166.49,111.52v-1.83h16.81v1.83H166.49z"/>
		<path class="st0" d="M196.19,99.63V97.8h20.66v1.83H196.19z M204.47,111.52V98.92h4.11v12.59H204.47z"/>
		<path class="st0" d="M220.07,111.52V97.8h4.11v13.72H220.07z M222.63,105.68v-1.83h16.25v1.83H222.63z M236.7,111.52V97.8h4.11
			v13.72H236.7z"/>
		<path class="st0" d="M248.06,111.52V97.8h4.11v13.72H248.06z M250.05,99.63V97.8h16.81v1.83H250.05z M250.05,105.62v-1.83h14.6
			v1.83H250.05z M250.05,111.52v-1.83h16.81v1.83H250.05z"/>
		<path class="st0" d="M283.77,111.52V97.8h4.11v13.72H283.77z M285.83,111.52v-1.83h16.75v1.83H285.83z"/>
		<path class="st0" d="M311.52,97.8v13.72h-4.11V97.8H311.52z"/>
		<path class="st0" d="M318.77,111.52V97.8h4.11v13.72H318.77z M320.78,99.63V97.8h16.41v1.83H320.78z M320.78,105.75v-1.83h14.19
			v1.83H320.78z"/>
		<path class="st0" d="M341.82,111.52V97.8h4.11v13.72H341.82z M343.81,99.63V97.8h16.81v1.83H343.81z M343.81,105.62v-1.83h14.6
			v1.83H343.81z M343.81,111.52v-1.83h16.81v1.83H343.81z"/>
		<path class="st0" d="M381.65,97.8v13.72h-4.11V97.8H381.65z"/>
		<path class="st0" d="M388.89,111.51V97.8h3.72l14.32,10.6l-0.48,0.25V97.8h4.07v13.71h-3.76l-14.28-10.44l0.48-0.25v10.69H388.89z
			"/>
		<path class="st1" d="M428.84,111.52V97.79h4.11v13.73H428.84z M430.63,105.72v-1.83h9.99c1.19,0,2.15-0.19,2.88-0.58
			c0.73-0.39,1.09-0.91,1.09-1.55s-0.36-1.16-1.09-1.55c-0.72-0.39-1.68-0.58-2.88-0.58h-9.99v-1.83h9.83c1.71,0,3.19,0.17,4.47,0.5
			s2.27,0.79,2.97,1.38c0.71,0.59,1.06,1.29,1.06,2.08c0,0.79-0.36,1.49-1.07,2.08c-0.71,0.59-1.7,1.06-2.97,1.39
			c-1.27,0.33-2.75,0.5-4.46,0.5H430.63z M445.31,111.52l-6.71-6.23l4.09-0.43l7.49,6.66H445.31z"/>
		<path class="st1" d="M465.58,111.66c-3.26,0-5.79-0.45-7.58-1.33s-2.69-2.15-2.69-3.77V97.8h4.11v8.82c0,1,0.54,1.77,1.61,2.32
			c1.07,0.55,2.59,0.82,4.55,0.82c1.97,0,3.5-0.27,4.58-0.82c1.08-0.55,1.62-1.32,1.62-2.32V97.8h4.11v8.75
			c0,1.62-0.9,2.88-2.7,3.77S468.86,111.66,465.58,111.66z"/>
		<path class="st1" d="M482.74,111.51V97.8h3.72l14.32,10.6l-0.48,0.25V97.8h4.07v13.71h-3.76l-14.28-10.44l0.48-0.25v10.69H482.74z
			"/>
		<path class="st1" d="M515.72,97.8v13.72h-4.11V97.8H515.72z"/>
		<path class="st1" d="M522.97,111.51V97.8h3.72l14.32,10.6l-0.48,0.25V97.8h4.07v13.71h-3.76l-14.28-10.44l0.48-0.25v10.69H522.97z
			"/>
		<path class="st1" d="M561.7,104.13h10.15v2.4c0,1.03-0.43,1.93-1.28,2.7s-2.04,1.37-3.57,1.79s-3.33,0.64-5.4,0.64
			c-2.08,0-3.9-0.2-5.46-0.6c-1.56-0.4-2.76-0.96-3.62-1.69s-1.29-1.57-1.29-2.54v-4.05c0-1.03,0.43-1.93,1.28-2.7
			c0.85-0.77,2.04-1.36,3.57-1.79c1.53-0.42,3.33-0.64,5.4-0.64c1.7,0,3.26,0.17,4.66,0.51c1.4,0.34,2.58,0.81,3.53,1.42
			s1.6,1.32,1.93,2.14h-4.45c-0.38-0.71-1.11-1.25-2.19-1.63c-1.09-0.38-2.25-0.57-3.48-0.57c-1.83,0-3.29,0.3-4.39,0.89
			c-1.1,0.59-1.65,1.38-1.65,2.35v4.05c0,0.89,0.56,1.61,1.69,2.15c1.13,0.54,2.62,0.81,4.47,0.81c1.83,0,3.29-0.28,4.39-0.85
			s1.65-1.36,1.65-2.37v-0.59h-5.94V104.13z"/>
		<path class="st1" d="M578.29,111.52v-2.02h4.31v2.02H578.29z M578.39,108V97.8h4.11V108H578.39z"/>
	</g>
</g>
</svg>
